<svg width="125" height="13" xmlns="http://www.w3.org/2000/svg" xmlns:xlink="http://www.w3.org/1999/xlink"><defs><linearGradient x1="0%" y1="44.001%" x2="100%" y2="55.999%" id="b"><stop stop-color="#FFBE0B" offset="0%"/><stop stop-color="#FB5607" offset="25.134%"/><stop stop-color="#FF006E" offset="49.328%"/><stop stop-color="#8338EC" offset="73.59%"/><stop stop-color="#3A86FF" offset="100%"/></linearGradient><path d="m5.64 12.792 3.512-5.636v5.54h2.142V0L5.639 8.645 0 0v12.696h2.157v-5.54l3.482 5.636zm11.478.112c.909 0 1.74-.288 2.434-.785v.577h1.926V4.21h-1.926v.576a4.149 4.149 0 0 0-2.434-.785c-2.373 0-4.284 1.986-4.284 4.451 0 2.466 1.91 4.45 4.284 4.45zm0-1.97c-1.31 0-2.389-1.104-2.389-2.465 0-1.36 1.048-2.45 2.358-2.45s2.388 1.105 2.388 2.466c0 1.361-1.048 2.45-2.357 2.45zm8.165 1.778V8.597c.14-1.425 1.202-2.481 2.173-2.481.585 0 .97.192 1.217.416l.91-1.873c-.54-.416-1.233-.64-2.127-.64-.801 0-1.54.416-2.173 1.04v-.848h-1.956v8.5h1.956zM34.79 13c1.078 0 2.018-.32 2.48-.96l-.8-1.506c-.432.433-.956.64-1.68.64-.74 0-1.34-.768-1.34-1.536V6.164h2.403V4.21h-2.404V.608l-1.91 1.41V4.21h-1.032v1.953h1.047V9.75c0 2.257 1.587 3.25 3.236 3.25zm7.38-.096c.878 0 1.833-.144 2.696-.753l-.893-1.633a4.325 4.325 0 0 1-1.803.417c-.97 0-1.88-.593-2.28-1.457h6.317s.092-.657.092-1.025c0-2.465-1.91-4.45-4.283-4.45s-4.283 1.985-4.283 4.45c0 2.466 1.941 4.467 4.437 4.45zm2.065-5.38h-4.392c.37-.88 1.202-1.504 2.188-1.504 1.048 0 1.895.544 2.204 1.505zm5.947 5.46c1.31 0 3.112-.656 3.112-2.482 0-1.008-.816-1.76-1.664-2.385-.924-.672-2.064-1.297-2.064-1.81 0-.56.785-.752 1.186-.752.847 0 1.31.289 1.803.609l.6-1.393c-.37-.464-1.587-.817-2.31-.817-1.218 0-3.098.609-3.098 2.354 0 1.217 1.202 1.953 2.22 2.658.739.512 1.54.992 1.54 1.617 0 .512-.755.88-1.294.88-.786 0-1.541-.384-1.942-.624l-.585 1.377c.554.496 1.772.768 2.496.768zM63 12.712c3.235 0 5.808-2.738 5.808-6.1 0-3.362-2.588-6.084-5.824-6.084h-3.374v12.184h3.39zm.262-2.178h-1.51V2.77h1.664c1.587 0 3.374 1.729 3.374 3.778 0 2.05-1.787 3.986-3.528 3.986zm11.216 2.37c.878 0 1.834-.144 2.697-.753l-.894-1.633a4.325 4.325 0 0 1-1.803.417c-.97 0-1.88-.593-2.28-1.457h6.317s.092-.657.092-1.025c0-2.465-1.91-4.45-4.283-4.45s-4.283 1.985-4.283 4.45c0 2.466 1.941 4.467 4.437 4.45zm2.065-5.38h-4.391c.37-.88 1.201-1.504 2.188-1.504 1.047 0 1.895.544 2.203 1.505zm5.546 5.188V.528h-1.94v12.184h1.94zM88.07 13c1.078 0 2.018-.32 2.48-.96l-.801-1.506c-.431.433-.955.64-1.68.64-.739 0-1.34-.768-1.34-1.536V6.164h2.404V4.21h-2.404V.608l-1.91 1.41V4.21h-1.033v1.953h1.048V9.75c0 2.257 1.587 3.25 3.236 3.25zm7.226-.096c.909 0 1.74-.288 2.434-.785v.577h1.926V4.21h-1.926v.576a4.149 4.149 0 0 0-2.434-.785c-2.373 0-4.284 1.986-4.284 4.451 0 2.466 1.91 4.45 4.284 4.45zm0-1.97c-1.31 0-2.389-1.104-2.389-2.465 0-1.36 1.048-2.45 2.358-2.45s2.388 1.105 2.388 2.466c0 1.361-1.048 2.45-2.357 2.45zm16.563 1.938c1.248 0 2.403-.4 3.358-1.073l-1.032-1.697c-.709.513-1.664.56-2.326.56-2.142 0-3.868-1.793-3.868-4.018 0-2.225 1.757-4.034 3.898-4.034.617 0 1.649.272 2.157.544l.94-1.921a5.8 5.8 0 0 0-3.127-.913c-3.344 0-6.04 2.802-6.04 6.276 0 3.474 2.696 6.276 6.04 6.276zm8.859.032c2.372 0 4.283-1.985 4.283-4.45 0-2.466-1.91-4.452-4.283-4.452s-4.268 1.986-4.268 4.451c0 2.466 1.895 4.45 4.268 4.45zm0-1.97c-1.31 0-2.358-1.088-2.358-2.449 0-1.36 1.064-2.465 2.373-2.465 1.31 0 2.373 1.088 2.373 2.45 0 1.36-1.079 2.465-2.388 2.465z" id="a"/></defs><g fill="none" fill-rule="evenodd"><mask id="c" fill="#fff"><use xlink:href="#a"/></mask><use fill="#3A86FF" fill-rule="nonzero" xlink:href="#a"/><path fill="url(#b)" mask="url(#c)" d="M-20.194-22.739h165.079v57.178H-20.194z"/></g></svg>