<?xml version="1.0" encoding="UTF-8"?>
<svg width="422px" height="356px" viewBox="0 0 422 356" version="1.1" xmlns="http://www.w3.org/2000/svg" xmlns:xlink="http://www.w3.org/1999/xlink">
    <title>logo</title>
    <g id="Logos" stroke="none" stroke-width="1" fill="none" fill-rule="evenodd">
        <g id="Single-Color" transform="translate(-59.000000, -92.000000)" fill="#000000">
            <g id="logo" transform="translate(59.237600, 92.500000)">
                <path d="M112.0004,347 L121.9944,347 L120.0004,355 L0,355 L83.5244,20 L193.5304,20 L112.0004,347 Z M131.9914,134.516 L155.4154,134.516 C156.3544,134.516 157.0794,134.857 157.5924,135.54 C158.1044,136.223 158.2434,137.033 158.0094,137.972 L137.3934,220.66 C137.1594,221.599 136.6154,222.409 135.7634,223.092 C134.9104,223.775 134.0144,224.116 133.0754,224.116 L109.9074,224.116 C108.9694,224.116 108.2434,223.775 107.7314,223.092 C107.2184,222.409 107.0794,221.599 107.3134,220.66 L117.2064,180.98 L103.2674,199.412 C102.4994,200.436 101.5354,201.225 100.3724,201.78 C99.2104,202.335 98.1174,202.612 97.0934,202.612 L88.3894,202.612 C86.9384,202.612 85.8394,202.228 85.0924,201.46 C84.3454,200.692 83.9184,200.009 83.8114,199.412 L79.0624,180.98 L69.1694,220.66 C68.9354,221.599 68.3914,222.409 67.5394,223.092 C66.6864,223.775 65.7904,224.116 64.8514,224.116 L41.6834,224.116 C40.745,224.116 40.0195,223.775 39.507,223.092 C38.9945,222.409 38.8553,221.599 39.0894,220.66 L59.7054,137.972 C59.9394,137.033 60.4834,136.223 61.3364,135.54 C62.1894,134.857 63.0844,134.516 64.0234,134.516 L87.4474,134.516 C89.8364,134.516 91.3844,135.668 92.0894,137.972 L101.1984,168.692 L125.6254,137.972 C127.4804,135.668 129.6024,134.516 131.9914,134.516 Z" id="m"></path>
                <path d="M226.0004,337 L235.9944,337 L234.0004,345 L114.0004,345 L197.5244,10 L307.5304,10 L226.0004,337 Z M178.2494,134.498 L219.0814,134.498 C228.4684,134.498 236.3084,135.736 242.6034,138.21 C248.8984,140.685 253.4454,144.866 256.2444,150.754 C259.0424,156.642 259.3464,163.981 257.1554,172.77 L253.8994,185.826 C250.4954,199.48 243.4094,209.421 232.6394,215.65 C222.7874,221.282 210.8214,224.098 196.7414,224.098 L155.9094,224.098 C154.9704,224.098 154.2454,223.757 153.7324,223.074 C153.2204,222.392 153.0814,221.581 153.3154,220.642 L173.9314,137.954 C174.1654,137.016 174.7094,136.205 175.5624,135.522 C176.4144,134.84 177.3104,134.498 178.2494,134.498 Z M201.8504,159.458 L191.9564,199.138 L203.6044,199.138 C207.6154,199.138 211.0334,198.178 213.8584,196.258 C216.6844,194.338 218.5334,191.629 219.4054,188.13 L223.8094,170.466 C224.6814,166.968 224.1844,164.258 222.3164,162.338 C220.4484,160.418 217.5084,159.458 213.4984,159.458 L201.8504,159.458 Z" id="d"></path>
                <path d="M421.5244,0 L311.5244,0 L228.0004,335 L338.0004,335 L421.5244,0 Z M308.2104,167.81 L303.1034,188.29 C302.2314,191.788 302.7344,194.476 304.6134,196.354 C306.4914,198.231 309.3294,199.17 313.1274,199.17 C316.9244,199.17 319.8254,198.572 321.8294,197.378 C323.8344,196.183 325.6994,194.434 327.4264,192.13 C329.1524,189.826 330.9544,188.674 332.8324,188.674 L360.4804,188.674 C361.2484,188.674 361.8404,188.951 362.2564,189.506 C362.6724,190.06 362.7854,190.722 362.5934,191.49 C360.6154,199.426 355.0524,206.679 345.9044,213.25 C341.3414,216.492 335.6954,219.116 328.9654,221.122 C322.2364,223.127 314.6474,224.13 306.1994,224.13 C297.7514,224.13 290.3754,222.828 284.0694,220.226 C277.7634,217.623 273.1734,213.356 270.3004,207.426 C267.4274,201.495 267.0654,194.22 269.2134,185.602 L272.9794,170.498 C275.1284,161.879 279.1234,154.583 284.9654,148.61 C295.9234,137.516 311.0014,131.97 330.2014,131.97 C337.9674,131.97 344.7144,132.972 350.4434,134.978 C356.1734,136.983 360.5114,139.607 363.4574,142.85 C369.3284,149.42 371.2744,156.674 369.2954,164.61 C369.1044,165.378 368.6624,166.039 367.9694,166.594 C367.2764,167.148 366.5454,167.426 365.7774,167.426 L338.1294,167.426 C336.2524,167.426 335.0254,166.274 334.4474,163.97 C333.8694,161.666 332.8764,159.916 331.4674,158.722 C330.0594,157.527 327.4564,156.93 323.6584,156.93 C319.8614,156.93 316.5554,157.868 313.7404,159.746 C310.9254,161.623 309.0824,164.311 308.2104,167.81 Z" id="c"></path>
            </g>
        </g>
    </g>
</svg>