<?xml version="1.0" encoding="UTF-8"?>
<svg width="424px" height="356px" viewBox="0 0 424 356" version="1.1" xmlns="http://www.w3.org/2000/svg" xmlns:xlink="http://www.w3.org/1999/xlink">
    <title>logo</title>
    <g id="Logos" stroke="none" stroke-width="1" fill="none" fill-rule="evenodd">
        <g id="Single-Color" transform="translate(-58.000000, -92.000000)" fill="#000000">
            <g id="logo" transform="translate(58.237600, 92.500000)">
                <path d="M112.0004,347 L121.9944,347 L120.0004,355 L0,355 L83.5244,20 L193.5304,20 L112.0004,347 Z M131.9914,134.516 L155.4154,134.516 C156.3544,134.516 157.0794,134.857 157.5924,135.54 C158.1044,136.223 158.2434,137.033 158.0094,137.972 L137.3934,220.66 C137.1594,221.599 136.6154,222.409 135.7634,223.092 C134.9104,223.775 134.0144,224.116 133.0754,224.116 L109.9074,224.116 C108.9694,224.116 108.2434,223.775 107.7314,223.092 C107.2184,222.409 107.0794,221.599 107.3134,220.66 L117.2064,180.98 L103.2674,199.412 C102.4994,200.436 101.5354,201.225 100.3724,201.78 C99.2104,202.335 98.1174,202.612 97.0934,202.612 L88.3894,202.612 C86.9384,202.612 85.8394,202.228 85.0924,201.46 C84.3454,200.692 83.9184,200.009 83.8114,199.412 L79.0624,180.98 L69.1694,220.66 C68.9354,221.599 68.3914,222.409 67.5394,223.092 C66.6864,223.775 65.7904,224.116 64.8514,224.116 L41.6834,224.116 C40.745,224.116 40.0195,223.775 39.507,223.092 C38.9945,222.409 38.8553,221.599 39.0894,220.66 L59.7054,137.972 C59.9394,137.033 60.4834,136.223 61.3364,135.54 C62.1894,134.857 63.0844,134.516 64.0234,134.516 L87.4474,134.516 C89.8364,134.516 91.3844,135.668 92.0894,137.972 L101.1984,168.692 L125.6254,137.972 C127.4804,135.668 129.6024,134.516 131.9914,134.516 Z" id="m"></path>
                <path d="M227.0004,337 L236.9944,337 L235.0004,345 L115.0004,345 L198.5244,10 L308.5304,10 L227.0004,337 Z M179.2494,134.498 L220.0814,134.498 C229.4684,134.498 237.3084,135.736 243.6034,138.21 C249.8984,140.685 254.4454,144.866 257.2444,150.754 C260.0424,156.642 260.3464,163.981 258.1554,172.77 L254.8994,185.826 C251.4954,199.48 244.4094,209.421 233.6394,215.65 C223.7874,221.282 211.8214,224.098 197.7414,224.098 L156.9094,224.098 C155.9704,224.098 155.2454,223.757 154.7324,223.074 C154.2204,222.392 154.0814,221.581 154.3154,220.642 L174.9314,137.954 C175.1654,137.016 175.7094,136.205 176.5624,135.522 C177.4144,134.84 178.3104,134.498 179.2494,134.498 Z M202.8504,159.458 L192.9564,199.138 L204.6044,199.138 C208.6154,199.138 212.0334,198.178 214.8584,196.258 C217.6844,194.338 219.5334,191.629 220.4054,188.13 L224.8094,170.466 C225.6814,166.968 225.1844,164.258 223.3164,162.338 C221.4484,160.418 218.5084,159.458 214.4984,159.458 L202.8504,159.458 Z" id="d"></path>
                <path d="M423.5244,0 L313.5244,0 L230.0004,335 L340.0004,335 L423.5244,0 Z M310.2104,167.81 L305.1034,188.29 C304.2314,191.788 304.7344,194.476 306.6134,196.354 C308.4914,198.231 311.3294,199.17 315.1274,199.17 C318.9244,199.17 321.8254,198.572 323.8294,197.378 C325.8344,196.183 327.6994,194.434 329.4264,192.13 C331.1524,189.826 332.9544,188.674 334.8324,188.674 L362.4804,188.674 C363.2484,188.674 363.8404,188.951 364.2564,189.506 C364.6724,190.06 364.7854,190.722 364.5934,191.49 C362.6154,199.426 357.0524,206.679 347.9044,213.25 C343.3414,216.492 337.6954,219.116 330.9654,221.122 C324.2364,223.127 316.6474,224.13 308.1994,224.13 C299.7514,224.13 292.3754,222.828 286.0694,220.226 C279.7634,217.623 275.1734,213.356 272.3004,207.426 C269.4274,201.495 269.0654,194.22 271.2134,185.602 L274.9794,170.498 C277.1284,161.879 281.1234,154.583 286.9654,148.61 C297.9234,137.516 313.0014,131.97 332.2014,131.97 C339.9674,131.97 346.7144,132.972 352.4434,134.978 C358.1734,136.983 362.5114,139.607 365.4574,142.85 C371.3284,149.42 373.2744,156.674 371.2954,164.61 C371.1044,165.378 370.6624,166.039 369.9694,166.594 C369.2764,167.148 368.5454,167.426 367.7774,167.426 L340.1294,167.426 C338.2524,167.426 337.0254,166.274 336.4474,163.97 C335.8694,161.666 334.8764,159.916 333.4674,158.722 C332.0594,157.527 329.4564,156.93 325.6584,156.93 C321.8614,156.93 318.5554,157.868 315.7404,159.746 C312.9254,161.623 311.0824,164.311 310.2104,167.81 Z" id="c"></path>
            </g>
        </g>
    </g>
</svg>