<?xml version="1.0" encoding="UTF-8"?>
<svg width="540px" height="540px" viewBox="0 0 540 540" version="1.1" xmlns="http://www.w3.org/2000/svg" xmlns:xlink="http://www.w3.org/1999/xlink">
    <title>Pinned Tab</title>
    <g id="Pinned-Tab" stroke="none" stroke-width="1" fill="none" fill-rule="evenodd">
        <g id="logo" transform="translate(8.000000, 51.000000)" fill="#000000">
            <path d="M138.465098,428.139312 L150.820591,428.139312 L148.355427,438 L0,438 L103.260473,25.0837004 L239.259912,25.0837004 L138.465098,428.139312 Z M163.179794,166.234515 L192.138676,166.234515 C193.299554,166.234515 194.195865,166.654827 194.830082,167.496683 C195.463063,168.338539 195.634908,169.336934 195.345616,170.494332 L169.858238,272.414401 C169.568946,273.571799 168.896404,274.570194 167.843084,275.41205 C166.788527,276.253906 165.680811,276.674218 164.519933,276.674218 L135.877541,276.674218 C134.7179,276.674218 133.820352,276.253906 133.187371,275.41205 C132.553154,274.570194 132.38131,273.571799 132.670602,272.414401 L144.90123,223.50539 L127.668568,246.224414 C126.719096,247.486582 125.527312,248.459093 124.089505,249.143178 C122.652935,249.827263 121.301669,250.168689 120.035707,250.168689 L109.275029,250.168689 C107.481171,250.168689 106.122487,249.695376 105.198977,248.74875 C104.275468,247.802124 103.747571,246.960268 103.615288,246.224414 L97.7441418,223.50539 L85.5135139,272.414401 C85.2242218,273.571799 84.5516794,274.570194 83.4983594,275.41205 C82.4438031,276.253906 81.3360863,276.674218 80.1752089,276.674218 L51.5328166,276.674218 C50.372681,276.674218 49.4757518,276.253906 48.8421526,275.41205 C48.2085535,274.570194 48.0364617,273.571799 48.3258775,272.414401 L73.8132549,170.494332 C74.102547,169.336934 74.7750894,168.338539 75.8296457,167.496683 C76.884202,166.654827 77.9906825,166.234515 79.1515599,166.234515 L108.110443,166.234515 C111.063942,166.234515 112.977721,167.654454 113.849306,170.494332 L125.110682,208.359373 L155.309564,170.494332 C157.602884,167.654454 160.226294,166.234515 163.179794,166.234515 Z" id="m"></path>
            <path d="M281.319515,415.597462 L293.675034,415.597462 L291.209865,425.45815 L142.854626,425.45815 L246.114817,12.5418502 L382.114537,12.5418502 L281.319515,415.597462 Z M222.285257,165.996338 L272.7656,165.996338 C284.370688,165.996338 294.06323,167.52228 301.845699,170.571697 C309.628168,173.622348 315.249595,178.775789 318.709981,186.033256 C322.16913,193.290722 322.544964,202.33667 319.836244,213.169868 L315.810872,229.262511 C311.602529,246.09224 302.842152,258.345377 289.527269,266.023155 C277.347304,272.965079 262.553814,276.436041 245.146799,276.436041 L194.666457,276.436041 C193.505577,276.436041 192.609264,276.015729 191.975045,275.173873 C191.342063,274.333249 191.170218,273.333622 191.459511,272.176224 L216.946941,170.256155 C217.236234,169.09999 217.908777,168.100362 218.963336,167.258506 C220.016658,166.417883 221.124377,165.996338 222.285257,165.996338 Z M251.463024,196.761684 L239.231134,245.670695 L253.631483,245.670695 C258.590256,245.670695 262.815908,244.487413 266.308438,242.120848 C269.802204,239.754283 272.088111,236.415207 273.166159,232.102389 L278.610796,210.32999 C279.688844,206.018405 279.074406,202.678097 276.76501,200.311532 C274.455613,197.944966 270.82091,196.761684 265.863372,196.761684 L251.463024,196.761684 Z" id="d"></path>
            <path d="M524.004405,0 L388.55626,0 L285.709251,412.9163 L421.157397,412.9163 L524.004405,0 Z M384.475576,206.840251 L378.187088,232.083612 C377.113354,236.395198 377.732721,239.708389 380.046422,242.023185 C382.358891,244.336749 385.853453,245.494147 390.530108,245.494147 C395.205532,245.494147 398.777669,244.757061 401.245288,243.285353 C403.714138,241.812413 406.0106,239.65662 408.137136,236.816742 C410.262441,233.976864 412.481327,232.556925 414.793797,232.556925 L448.838072,232.556925 C449.783747,232.556925 450.512704,232.898351 451.024944,233.582437 C451.537185,234.265289 451.676327,235.081261 451.439908,236.027887 C449.004304,245.809689 442.154322,254.749635 430.889962,262.848958 C425.271326,266.845002 418.319143,270.079307 410.032179,272.551875 C401.746446,275.023209 392.401756,276.259493 381.999338,276.259493 C371.59692,276.259493 362.514506,274.654666 354.749634,271.447478 C346.984761,268.239056 341.332879,262.979612 337.79522,255.670377 C334.257561,248.35991 333.811813,239.392847 336.456746,228.770421 L341.093998,210.153443 C343.740162,199.529784 348.659393,190.536837 355.85292,183.174601 C369.346018,169.500292 387.912265,162.66437 411.554123,162.66437 C421.116762,162.66437 429.424659,163.899421 436.479045,166.371989 C443.534662,168.843324 448.876244,172.077629 452.503792,176.074906 C459.733029,184.172995 462.12923,193.114174 459.692394,202.895976 C459.457207,203.842602 458.912952,204.657342 458.059629,205.341427 C457.206305,206.02428 456.306191,206.366938 455.360516,206.366938 L421.316241,206.366938 C419.005003,206.366938 417.49414,204.946999 416.782422,202.107121 C416.070703,199.267243 414.847976,197.110218 413.113008,195.63851 C411.379272,194.16557 408.174076,193.429716 403.497421,193.429716 C398.821998,193.429716 394.751165,194.585882 391.284924,196.900678 C387.818683,199.214242 385.549311,202.527433 384.475576,206.840251 Z" id="c"></path>
        </g>
    </g>
</svg>